<?xml version="1.0" encoding="UTF-8"?>
<svg version="1.1" xmlns="http://www.w3.org/2000/svg" width="512" height="512">
<path d="M0 0 C0.79277344 0.66515625 1.58554687 1.3303125 2.40234375 2.015625 C3.22605469 2.70140625 4.04976562 3.3871875 4.8984375 4.09375 C28.40398095 24.48233371 45.34691459 53.85723037 50.41015625 84.76171875 C52.52117271 97.3259795 55.28961732 103.73091791 65.68359375 111.3515625 C66.64845703 112.0336377 66.64845703 112.0336377 67.6328125 112.72949219 C91.86809874 130.34421182 109.93721816 164.99313601 114.57788086 193.9699707 C118.03921494 218.84254272 114.18637307 245.19903199 99.40234375 266.015625 C95.93155883 270.23930326 92.26404471 274.1485531 88.40234375 278.015625 C87.60957031 278.82 86.81679688 279.624375 86 280.453125 C66.17473713 299.45370971 37.91015775 308.43167717 10.92504883 308.27636719 C8.73555258 308.26572565 6.54689205 308.27627727 4.35742188 308.2890625 C-9.36725706 308.305062 -22.61521283 307.00116242 -35.84765625 303.140625 C-36.78585205 302.88031494 -37.72404785 302.62000488 -38.69067383 302.35180664 C-43.66910844 300.95004444 -48.46582832 299.33949393 -53.28515625 297.453125 C-59.48476948 295.33962049 -63.61149832 296.83128202 -69.59765625 299.015625 C-72.31576421 299.88657799 -75.0486614 300.7045267 -77.78515625 301.515625 C-78.50525879 301.73114014 -79.22536133 301.94665527 -79.96728516 302.16870117 C-114.96969385 312.40847838 -152.69169518 311.40582391 -185.28515625 294.703125 C-191.85207984 291.05214165 -197.73188796 286.69262072 -203.59765625 282.015625 C-204.2421875 281.53738281 -204.88671875 281.05914062 -205.55078125 280.56640625 C-219.70052182 269.55737912 -228.44876809 251.02606646 -232.59765625 234.015625 C-232.82195312 233.12488281 -233.04625 232.23414063 -233.27734375 231.31640625 C-239.58668149 201.02294218 -230.71241856 170.53013269 -214.36230469 145.09375 C-206.03971683 132.51918627 -194.85488766 116.14985163 -181.80859375 108.34765625 C-174.87194166 103.96316861 -172.93289242 100.2183248 -171.00390625 92.37451172 C-170.03922927 87.9502357 -169.13076014 83.51640002 -168.24511719 79.07568359 C-163.95873855 58.81721079 -154.32811581 38.27599732 -141.59765625 22.015625 C-140.84613281 21.03335938 -140.09460938 20.05109375 -139.3203125 19.0390625 C-134.86416872 13.38699637 -130.2553307 8.46019365 -124.59765625 4.015625 C-123.50517578 3.11650391 -123.50517578 3.11650391 -122.390625 2.19921875 C-86.27614614 -25.9530128 -36.82269974 -28.82269872 0 0 Z M-118.59765625 11.015625 C-119.30535156 11.56863281 -120.01304687 12.12164062 -120.7421875 12.69140625 C-139.06388069 27.83300279 -149.57219788 50.51227153 -157.03515625 72.515625 C-157.37748291 73.51835449 -157.71980957 74.52108398 -158.07250977 75.55419922 C-159.99232856 81.42169736 -161.14586629 86.85600981 -161.59765625 93.015625 C-160.93918701 92.63905762 -160.28071777 92.26249023 -159.60229492 91.87451172 C-154.74971155 89.15590345 -149.93756773 86.66136452 -144.7734375 84.5859375 C-131.1158058 79.24829134 -131.1158058 79.24829134 -122.53515625 68.015625 C-121.71803366 65.99066482 -120.96581809 63.96273164 -120.265625 61.89453125 C-117.6398425 54.50855826 -113.30654272 48.18440074 -107.91796875 42.57421875 C-106.38219933 41.10172635 -106.38219933 41.10172635 -106.59765625 39.015625 C-105.71207031 38.61730469 -105.71207031 38.61730469 -104.80859375 38.2109375 C-102.54049573 36.98472196 -101.06413527 35.68210912 -99.22265625 33.890625 C-87.92522726 23.815679 -73.27504578 17.48501077 -58.0078125 17.80859375 C-42.38313232 19.15074618 -29.14643142 25.55521608 -17.59765625 36.015625 C-16.53611328 36.97275391 -16.53611328 36.97275391 -15.453125 37.94921875 C5.96515395 58.30272666 15.33570143 91.90675579 16.37841797 120.6796875 C17.1275674 158.60123381 4.59495352 194.57050702 -21.3828125 222.4921875 C-22.80548021 223.95148791 -22.80548021 223.95148791 -22.59765625 226.015625 C-23.21640625 226.263125 -23.83515625 226.510625 -24.47265625 226.765625 C-26.73512119 227.83706229 -26.73512119 227.83706229 -27.59765625 230.015625 C-28.59765625 232.015625 -28.59765625 232.015625 -30.32421875 232.8671875 C-33.23970169 234.33995723 -35.47700426 236.28644783 -37.97265625 238.390625 C-40.99563954 240.91180116 -43.94959746 243.3594449 -47.28515625 245.453125 C-48.42984375 246.2265625 -48.42984375 246.2265625 -49.59765625 247.015625 C-49.59765625 247.675625 -49.59765625 248.335625 -49.59765625 249.015625 C-33.01074265 257.07857059 -33.01074265 257.07857059 -15.59765625 258.015625 C-12.63167986 256.04468585 -10.16438676 253.47594048 -7.59765625 251.015625 C-6.68628906 250.16742188 -5.77492188 249.31921875 -4.8359375 248.4453125 C22.97061029 222.04890784 40.62454509 183.84912373 45.40234375 146.015625 C45.51320313 145.18933594 45.6240625 144.36304688 45.73828125 143.51171875 C50.26602783 103.43504293 39.25644389 58.74777928 14.46484375 26.640625 C-2.92938352 6.15022528 -26.11567162 -8.94295175 -53.25268555 -11.60107422 C-77.6365043 -13.45398456 -99.63637032 -3.8974115 -118.59765625 11.015625 Z M-94.59765625 41.015625 C-95.48582031 41.78519531 -96.37398437 42.55476563 -97.2890625 43.34765625 C-105.49087031 50.95628741 -112.03020907 60.31328345 -115.59765625 71.015625 C-110.29390629 70.09111813 -105.00504599 69.10609564 -99.73046875 68.02734375 C-98.86583008 67.85106445 -98.00119141 67.67478516 -97.11035156 67.49316406 C-95.38764378 67.14045862 -93.66560159 66.78448206 -91.94433594 66.42480469 C-81.35947466 64.26114065 -71.08927132 63.77630085 -60.28515625 63.765625 C-59.57656464 63.76461792 -58.86797302 63.76361084 -58.13790894 63.76257324 C-42.22436115 63.77782319 -27.2680502 65.77371566 -11.88500977 69.83300781 C-7.74578442 70.90580868 -7.74578442 70.90580868 -3.59765625 70.015625 C-7.61944889 62.10650695 -11.70136643 54.70288053 -17.59765625 48.015625 C-18.67273438 46.78199219 -18.67273438 46.78199219 -19.76953125 45.5234375 C-30.11152266 34.40410686 -43.95432544 26.81861333 -59.22265625 25.765625 C-72.7636419 25.99819918 -84.6245654 32.3036904 -94.59765625 41.015625 Z M-188.59765625 127.015625 C-191.78244272 130.55318781 -194.70668265 134.23633405 -197.59765625 138.015625 C-198.4369439 139.06789103 -199.27816608 140.11861633 -200.12109375 141.16796875 C-219.3639944 165.31910926 -227.50489606 192.27632398 -225.59765625 223.015625 C-222.89655401 245.51602629 -211.035971 264.63477165 -193.37890625 278.61328125 C-167.29205385 298.47744496 -136.00208151 302.13687158 -104.12646484 298.51953125 C-93.70092535 297.03078672 -81.98126407 295.01306642 -72.59765625 290.015625 C-76.78806281 286.46748636 -81.21623796 283.9166446 -86.03466797 281.31665039 C-90.28567766 278.95116039 -93.61318608 276.2493979 -97.22265625 272.953125 C-104.68715379 267.10960414 -112.44605788 268.71215768 -121.33007812 269.75927734 C-136.00320824 271.41806143 -150.42061798 268.48501931 -163.59765625 262.015625 C-164.55542969 261.55027344 -165.51320312 261.08492187 -166.5 260.60546875 C-180.01459951 253.65351427 -188.90368078 243.56930775 -193.59765625 229.015625 C-193.82324219 228.33371094 -194.04882812 227.65179688 -194.28125 226.94921875 C-199.24097963 208.92316693 -194.48982979 187.99077702 -185.59765625 172.015625 C-182.5884875 167.10552681 -179.14893342 162.54200804 -175.59765625 158.015625 C-174.85386719 157.04882812 -174.11007813 156.08203125 -173.34375 155.0859375 C-154.08235979 130.75938743 -127.73477946 114.13553512 -97.78515625 106.140625 C-96.71261597 105.85409058 -96.71261597 105.85409058 -95.6184082 105.56176758 C-83.63929743 102.58353562 -71.6615103 101.6477991 -59.34765625 101.703125 C-58.66967987 101.70594482 -57.99170349 101.70876465 -57.29318237 101.71166992 C-35.54437466 101.84705913 -15.17872564 106.16351461 4.40234375 116.015625 C5.39234375 116.015625 6.38234375 116.015625 7.40234375 116.015625 C7.60638769 109.88727077 6.90187419 104.43121281 5.58984375 98.453125 C5.34137695 97.23592773 5.34137695 97.23592773 5.08789062 95.99414062 C4.5861277 93.64816228 4.0144982 91.33501869 3.40234375 89.015625 C3.24725342 88.34450684 3.09216309 87.67338867 2.93237305 86.98193359 C2.07728627 84.19767421 1.0615298 82.37824027 -1.51538086 80.96069336 C-4.04213144 80.05683013 -6.54950156 79.38665669 -9.16015625 78.765625 C-10.09384033 78.52239502 -11.02752441 78.27916504 -11.98950195 78.02856445 C-76.63447187 61.70164288 -141.68570692 79.63948817 -188.59765625 127.015625 Z M-127.59765625 127.015625 C-125.76587394 157.20356901 -117.43691654 184.93919582 -98.59765625 209.015625 C-97.86804688 209.97210938 -97.1384375 210.92859375 -96.38671875 211.9140625 C-93.59306176 215.5501624 -93.59306176 215.5501624 -90.59765625 219.015625 C-89.93765625 219.015625 -89.27765625 219.015625 -88.59765625 219.015625 C-88.38625 219.56863281 -88.17484375 220.12164062 -87.95703125 220.69140625 C-86.12293459 223.82728991 -83.60679775 225.91039725 -80.84765625 228.203125 C-80.28216064 228.67854736 -79.71666504 229.15396973 -79.1340332 229.64379883 C-72.99877433 234.68830766 -66.37712156 238.89915806 -59.59765625 243.015625 C-52.15498533 238.48776437 -45.28181681 233.59913476 -38.59765625 228.015625 C-37.95957031 227.50128906 -37.32148438 226.98695313 -36.6640625 226.45703125 C-32.11968492 222.72234232 -28.31724496 218.56427867 -24.59765625 214.015625 C-23.81132812 213.05527344 -23.025 212.09492188 -22.21484375 211.10546875 C-2.58717168 186.63716277 6.78875356 158.09846757 8.40234375 127.015625 C-6.85904173 119.48767108 -21.75152265 113.84883838 -38.59765625 111.015625 C-39.62761719 110.83128906 -40.65757812 110.64695313 -41.71875 110.45703125 C-71.53431691 107.06412182 -101.3377383 112.44457297 -127.59765625 127.015625 Z M54.40234375 114.015625 C54.41394531 115.31113281 54.42554688 116.60664063 54.4375 117.94140625 C54.44685814 119.73697791 54.45595245 121.53255096 54.46484375 123.328125 C54.47394775 124.27421631 54.48305176 125.22030762 54.49243164 126.19506836 C54.51091642 130.91497935 54.41036267 135.52793307 53.86328125 140.21875 C52.57715993 150.91147075 52.57715993 150.91147075 57.33984375 160.328125 C58.58121094 161.71451172 58.58121094 161.71451172 59.84765625 163.12890625 C72.38215021 177.2925011 77.01888884 196.54647086 76.71484375 215.07421875 C75.84604716 226.03191572 72.97834077 236.06959859 66.40234375 245.015625 C65.99757813 245.6240625 65.5928125 246.2325 65.17578125 246.859375 C55.23535262 260.27590445 35.11633479 267.3527498 19.33984375 269.703125 C-19.27090571 272.7674702 -56.02009381 259.52482802 -85.59765625 235.015625 C-86.11948486 234.46624268 -86.64131348 233.91686035 -87.17895508 233.35083008 C-88.51569316 231.78717401 -88.51569316 231.78717401 -90.59765625 232.015625 C-90.59765625 231.355625 -90.59765625 230.695625 -90.59765625 230.015625 C-92.43098958 227.84895833 -92.43098958 227.84895833 -94.59765625 226.015625 C-95.25765625 226.015625 -95.91765625 226.015625 -96.59765625 226.015625 C-96.85417969 225.43554688 -97.11070312 224.85546875 -97.375 224.2578125 C-98.71065268 221.80840472 -100.22689933 220.14808774 -102.16015625 218.140625 C-107.46356259 212.27139411 -111.5601347 205.77999347 -115.59765625 199.015625 C-115.94860352 198.43570801 -116.29955078 197.85579102 -116.66113281 197.25830078 C-128.206741 177.9196786 -134.56708924 154.48198581 -135.59765625 132.015625 C-144.75294619 137.22595261 -152.09671712 144.72517734 -159.59765625 152.015625 C-160.43889038 152.78688721 -160.43889038 152.78688721 -161.29711914 153.57373047 C-162.83530795 154.96637801 -162.83530795 154.96637801 -162.6640625 157.23046875 C-162.0556851 160.51759315 -161.36910414 163.76212738 -160.59765625 167.015625 C-160.4368457 167.70301758 -160.27603516 168.39041016 -160.11035156 169.09863281 C-149.62530277 212.2420303 -120.4453912 250.31124892 -82.75952148 273.38061523 C-80.7134658 274.6062942 -78.65808319 275.81427973 -76.59765625 277.015625 C-75.92895508 277.41023926 -75.26025391 277.80485352 -74.57128906 278.21142578 C-63.11027469 284.89655766 -51.29041098 289.24348102 -38.59765625 293.015625 C-37.53321289 293.33853516 -37.53321289 293.33853516 -36.44726562 293.66796875 C-27.27405066 296.42263389 -18.13279657 298.15970776 -8.59765625 299.015625 C-7.8382373 299.08410645 -7.07881836 299.15258789 -6.29638672 299.22314453 C24.98001652 301.84054871 53.85242888 295.17626719 78.40234375 275.015625 C94.31533927 261.27823433 104.21128604 243.07805076 106.40234375 222.015625 C108.69878059 188.74724435 97.07991722 159.99555725 75.7578125 134.7109375 C66.22343451 123.71087054 66.22343451 123.71087054 55.40234375 114.015625 C55.07234375 114.015625 54.74234375 114.015625 54.40234375 114.015625 Z M-170.59765625 165.015625 C-182.90445301 182.43330223 -190.39172561 200.54011209 -187.09375 222.34765625 C-185.69051237 228.72236435 -183.56760784 233.8416717 -179.59765625 239.015625 C-178.85902344 240.01529297 -178.85902344 240.01529297 -178.10546875 241.03515625 C-167.64851642 254.11885497 -150.70267333 259.92641441 -134.59765625 262.015625 C-127.78742853 262.39512097 -121.30981698 262.26721587 -114.59765625 261.015625 C-117.68887436 257.30616326 -120.79249156 253.78735954 -124.28515625 250.453125 C-147.45383885 227.41633244 -161.92801054 196.41605683 -169.59765625 165.015625 C-169.92765625 165.015625 -170.25765625 165.015625 -170.59765625 165.015625 Z M50.40234375 165.015625 C50.01755859 166.58183594 50.01755859 166.58183594 49.625 168.1796875 C40.67948075 203.11997545 23.09337043 233.23480841 -2.83203125 258.22265625 C-4.71459838 259.7149815 -4.71459838 259.7149815 -4.59765625 261.015625 C14.24129673 264.52845232 33.22841858 260.26895826 49.3515625 250.16796875 C58.16360758 243.59604539 64.93413146 234.82680281 67.40234375 224.015625 C67.58410156 223.22542969 67.76585937 222.43523437 67.953125 221.62109375 C71.47126057 201.21590742 63.8091133 182.8930868 52.53125 166.421875 C52.15871094 165.9578125 51.78617187 165.49375 51.40234375 165.015625 C51.07234375 165.015625 50.74234375 165.015625 50.40234375 165.015625 Z " fill="#000000" transform="translate(315.59765625,111.984375)"/>
</svg>
